<svg xmlns="http://www.w3.org/2000/svg" xmlns:xlink="http://www.w3.org/1999/xlink" width="500" zoomAndPan="magnify" viewBox="0 0 375 374.999991" height="500" preserveAspectRatio="xMidYMid meet" version="1.0"><path fill="#caddff" d="M 357.0625 147.859375 C 341.269531 67.710938 261.542969 19.277344 194.628906 13.097656 C 139.191406 7.976562 71.996094 21.9375 40.941406 73.308594 C 21.914062 104.785156 45.386719 118.644531 32.226562 188.308594 C 20.832031 248.605469 0.0664062 270.328125 12.707031 301.058594 C 23.039062 326.183594 46.554688 337.195312 61.988281 344.789062 C 122.835938 374.726562 234.898438 372.351562 301.441406 317.738281 C 317.015625 304.957031 374.921875 238.515625 357.0625 147.859375 " fill-opacity="1" fill-rule="nonzero"/><path fill="#ffffff" d="M 147.074219 89.242188 C 156.15625 73.570312 176.230469 68.214844 191.917969 77.289062 C 207.605469 86.359375 212.964844 106.425781 203.882812 122.097656 C 194.804688 137.773438 174.726562 143.125 159.039062 134.054688 C 143.351562 124.980469 137.992188 104.921875 147.074219 89.242188 Z M 125.425781 87.621094 C 124.40625 90.4375 123.625 93.300781 123.105469 96.1875 L 109.535156 99.230469 L 109.519531 111.972656 L 123.101562 115.050781 C 123.625 117.960938 124.390625 120.828125 125.390625 123.613281 L 115.144531 133.042969 L 121.507812 144.082031 L 134.792969 139.964844 C 136.683594 142.207031 138.785156 144.304688 141.078125 146.238281 L 136.925781 159.519531 L 147.957031 165.898438 L 157.414062 155.683594 C 160.234375 156.707031 163.097656 157.484375 165.988281 158.007812 L 169.035156 171.566406 L 181.78125 171.578125 L 184.863281 158.007812 C 187.777344 157.484375 190.644531 156.71875 193.433594 155.722656 L 202.867188 165.960938 L 213.917969 159.601562 L 209.796875 146.328125 C 212.042969 144.4375 214.140625 142.335938 216.078125 140.046875 L 229.367188 144.199219 L 235.753906 133.171875 L 225.53125 123.722656 C 226.550781 120.90625 227.332031 118.042969 227.855469 115.15625 L 241.425781 112.113281 L 241.4375 99.371094 L 227.855469 96.296875 C 227.332031 93.382812 226.566406 90.519531 225.570312 87.730469 L 235.8125 78.300781 L 229.449219 67.261719 L 216.164062 71.378906 C 214.273438 69.136719 212.171875 67.039062 209.878906 65.105469 L 214.035156 51.828125 L 203 45.445312 L 193.542969 55.65625 C 190.722656 54.636719 187.859375 53.859375 184.96875 53.339844 L 181.925781 39.777344 L 169.175781 39.761719 L 166.097656 53.339844 C 163.179688 53.859375 160.3125 54.621094 157.523438 55.621094 L 148.089844 45.386719 L 137.039062 51.742188 L 141.160156 65.015625 C 138.914062 66.90625 136.820312 69.007812 134.882812 71.296875 L 121.589844 67.148438 L 115.207031 78.171875 L 125.425781 87.621094 " fill-opacity="1" fill-rule="nonzero"/><path fill="#4354e8" d="M 240.355469 349.253906 L 169.261719 349.253906 L 132.566406 285.078125 L 132.566406 341.132812 C 132.566406 349.898438 138.964844 356.910156 146.71875 356.910156 L 240.355469 356.910156 C 241.867188 356.910156 243.21875 355.855469 243.21875 354.34375 L 243.21875 351.835938 C 243.21875 350.324219 241.867188 349.253906 240.355469 349.253906 " fill-opacity="1" fill-rule="nonzero"/><path fill="#ffffff" d="M 142.992188 305.242188 L 142.992188 337.027344 C 142.992188 343.46875 148.105469 348.617188 154.554688 348.617188 L 215.769531 348.617188 L 215.769531 305.242188 L 142.992188 305.242188 " fill-opacity="1" fill-rule="nonzero"/><path fill="#000000" d="M 143.632812 305.875 L 143.632812 337.027344 C 143.632812 343.167969 148.429688 347.980469 154.554688 347.980469 L 215.132812 347.980469 L 215.132812 305.875 Z M 216.40625 349.253906 L 154.554688 349.253906 C 147.714844 349.253906 142.355469 343.882812 142.355469 337.027344 L 142.355469 304.601562 L 216.40625 304.601562 L 216.40625 349.253906 " fill-opacity="1" fill-rule="nonzero"/><path fill="#4354e8" d="M 335.621094 308.171875 L 37.136719 308.824219 C 34.527344 308.824219 32.324219 306.882812 31.992188 304.289062 L 8.21875 118.621094 C 7.636719 114.105469 10.933594 109.835938 15.484375 109.835938 L 310.105469 110.105469 L 335.621094 308.171875 " fill-opacity="1" fill-rule="nonzero"/><path fill="#ffffff" d="M 341.738281 307.9375 L 49.21875 307.9375 C 46.609375 307.9375 44.40625 305.988281 44.074219 303.390625 L 20.445312 119.390625 C 19.792969 114.28125 23.753906 109.753906 28.878906 109.753906 L 317.632812 109.753906 C 320.238281 109.753906 322.441406 111.699219 322.773438 114.296875 L 346.882812 302.058594 C 347.285156 305.175781 344.867188 307.9375 341.738281 307.9375 " fill-opacity="1" fill-rule="nonzero"/><path fill="#000000" d="M 28.878906 110.390625 C 26.628906 110.390625 24.484375 111.359375 22.992188 113.054688 C 21.488281 114.765625 20.789062 117.042969 21.082031 119.308594 L 44.707031 303.308594 C 45 305.585938 46.9375 307.296875 49.21875 307.296875 L 341.742188 307.296875 C 343.039062 307.296875 344.28125 306.734375 345.144531 305.757812 C 346.015625 304.765625 346.417969 303.449219 346.25 302.140625 L 322.140625 114.378906 C 321.847656 112.105469 319.910156 110.390625 317.632812 110.390625 Z M 341.742188 308.574219 L 49.21875 308.574219 C 46.296875 308.574219 43.8125 306.378906 43.441406 303.472656 L 19.8125 119.472656 C 19.476562 116.84375 20.285156 114.199219 22.035156 112.210938 C 23.769531 110.242188 26.261719 109.113281 28.878906 109.113281 L 317.632812 109.113281 C 320.550781 109.113281 323.035156 111.304688 323.40625 114.214844 L 347.515625 301.976562 C 347.730469 303.648438 347.214844 305.335938 346.101562 306.597656 C 344.996094 307.855469 343.40625 308.574219 341.742188 308.574219 " fill-opacity="1" fill-rule="nonzero"/><path fill="#caddff" d="M 43.445312 92.148438 L 299.640625 92.148438 C 305.292969 92.148438 310.4375 96.742188 311.132812 102.414062 L 332.742188 279.484375 C 333.441406 285.214844 329.398438 289.859375 323.710938 289.859375 L 66.078125 289.859375 C 60.394531 289.859375 55.253906 285.214844 54.597656 279.484375 L 34.378906 102.414062 C 33.734375 96.742188 37.792969 92.148438 43.445312 92.148438 " fill-opacity="1" fill-rule="nonzero"/><path fill="#4354e8" d="M 311.941406 108.683594 L 311.460938 102.320312 C 310.777344 96.699219 305.449219 92.226562 299.792969 92.226562 L 43.601562 92.226562 C 37.945312 92.226562 33.828125 96.699219 34.46875 102.320312 L 35.070312 110.152344 L 311.941406 108.683594 " fill-opacity="1" fill-rule="nonzero"/><path fill="#caddff" d="M 50.59375 102.585938 C 50.804688 104.414062 49.492188 105.894531 47.664062 105.894531 C 45.839844 105.894531 44.1875 104.414062 43.980469 102.585938 C 43.769531 100.761719 45.082031 99.28125 46.910156 99.28125 C 48.734375 99.28125 50.386719 100.761719 50.59375 102.585938 " fill-opacity="1" fill-rule="nonzero"/><path fill="#caddff" d="M 61.15625 102.363281 C 61.367188 104.191406 60.054688 105.671875 58.226562 105.671875 C 56.402344 105.671875 54.75 104.191406 54.539062 102.363281 C 54.332031 100.539062 55.640625 99.058594 57.46875 99.058594 C 59.296875 99.058594 60.945312 100.539062 61.15625 102.363281 " fill-opacity="1" fill-rule="nonzero"/><path fill="#caddff" d="M 72.675781 102.804688 C 72.886719 104.632812 71.574219 106.113281 69.746094 106.113281 C 67.921875 106.113281 66.269531 104.632812 66.058594 102.804688 C 65.847656 100.980469 67.160156 99.5 68.984375 99.5 C 70.8125 99.5 72.464844 100.980469 72.675781 102.804688 " fill-opacity="1" fill-rule="nonzero"/><path fill="#ffffff" d="M 92.902344 207.863281 L 117.359375 207.863281 L 112.820312 168.777344 L 111.902344 170.832031 Z M 132.960938 207.863281 L 144.582031 207.863281 L 146.050781 220.417969 L 134.425781 220.417969 L 136.859375 241.300781 L 121.246094 241.300781 L 118.820312 220.417969 L 78.425781 220.417969 L 76.878906 210.890625 L 109.851562 147.660156 L 125.941406 147.660156 L 132.960938 207.863281 " fill-opacity="1" fill-rule="nonzero"/><path fill="#ffffff" d="M 197.453125 184.324219 C 196.410156 175.542969 194.449219 169.109375 191.574219 165.019531 C 188.695312 160.933594 184.648438 158.890625 179.433594 158.890625 C 174.347656 158.890625 170.835938 160.828125 168.898438 164.699219 C 166.960938 168.574219 166.414062 174.621094 167.253906 182.847656 L 169.75 204.066406 C 170.78125 212.820312 172.769531 219.347656 175.714844 223.640625 C 178.660156 227.9375 182.75 230.082031 187.972656 230.082031 C 192.984375 230.082031 196.453125 228.097656 198.378906 224.125 C 200.308594 220.152344 200.832031 213.9375 199.960938 205.484375 Z M 215.121094 201.816406 C 216.726562 215.289062 215.417969 225.453125 211.203125 232.308594 C 206.984375 239.164062 199.730469 242.589844 189.449219 242.589844 C 179.339844 242.589844 171.328125 239.246094 165.425781 232.566406 C 159.523438 225.886719 155.742188 216 154.078125 202.910156 L 152.179688 186.703125 C 150.601562 173.253906 151.929688 163.167969 156.164062 156.449219 C 160.398438 149.734375 167.660156 146.378906 177.957031 146.378906 C 188.167969 146.378906 196.171875 149.648438 201.96875 156.195312 C 207.769531 162.742188 211.511719 172.546875 213.195312 185.609375 L 215.121094 201.816406 " fill-opacity="1" fill-rule="nonzero"/><path fill="#ffffff" d="M 242.355469 207.867188 L 266.816406 207.867188 L 262.105469 168.777344 L 261.203125 170.832031 Z M 282.417969 207.867188 L 294.035156 207.867188 L 295.558594 220.421875 L 283.933594 220.421875 L 286.457031 241.300781 L 270.84375 241.300781 L 268.328125 220.421875 L 227.933594 220.421875 L 226.347656 210.890625 L 259.054688 147.664062 L 275.140625 147.664062 L 282.417969 207.867188 " fill-opacity="1" fill-rule="nonzero"/><path fill="#4253f0" d="M 96.941406 203.746094 L 119.636719 203.746094 L 115.449219 167.675781 Z M 120.355469 205.019531 L 95.894531 205.019531 C 95.671875 205.019531 95.464844 204.90625 95.351562 204.714844 C 95.234375 204.527344 95.226562 204.289062 95.328125 204.09375 L 114.332031 167.058594 L 115.230469 165.035156 C 115.347656 164.773438 115.625 164.621094 115.910156 164.664062 C 116.195312 164.707031 116.414062 164.9375 116.449219 165.222656 L 120.988281 204.308594 C 121.011719 204.492188 120.953125 204.671875 120.832031 204.808594 C 120.710938 204.945312 120.539062 205.019531 120.355469 205.019531 Z M 124.808594 237.179688 L 139.136719 237.179688 L 136.785156 217.011719 C 136.765625 216.832031 136.820312 216.648438 136.945312 216.515625 C 137.0625 216.378906 137.238281 216.300781 137.421875 216.300781 L 148.328125 216.300781 L 147.007812 205.019531 L 135.957031 205.019531 C 135.632812 205.019531 135.359375 204.78125 135.320312 204.457031 L 128.367188 144.820312 L 113.234375 144.820312 L 80.539062 207.515625 L 81.960938 216.300781 L 121.8125 216.300781 C 122.140625 216.300781 122.410156 216.542969 122.449219 216.863281 Z M 139.855469 238.457031 L 124.242188 238.457031 C 123.917969 238.457031 123.644531 238.214844 123.605469 237.890625 L 121.246094 217.578125 L 81.417969 217.578125 C 81.105469 217.578125 80.839844 217.347656 80.789062 217.039062 L 79.242188 207.511719 C 79.222656 207.375 79.242188 207.234375 79.308594 207.113281 L 112.28125 143.886719 C 112.390625 143.675781 112.609375 143.542969 112.847656 143.542969 L 128.933594 143.542969 C 129.257812 143.542969 129.53125 143.785156 129.566406 144.105469 L 136.523438 203.746094 L 147.578125 203.746094 C 147.898438 203.746094 148.171875 203.988281 148.210938 204.308594 L 149.679688 216.863281 C 149.699219 217.046875 149.640625 217.226562 149.519531 217.363281 C 149.398438 217.5 149.226562 217.578125 149.042969 217.578125 L 138.136719 217.578125 L 140.492188 237.746094 C 140.511719 237.925781 140.453125 238.105469 140.332031 238.242188 C 140.210938 238.378906 140.039062 238.457031 139.855469 238.457031 " fill-opacity="1" fill-rule="nonzero"/><path fill="#4253f0" d="M 182.429688 156.046875 C 177.5625 156.046875 174.300781 157.832031 172.464844 161.503906 C 170.589844 165.25 170.058594 171.238281 170.882812 179.300781 L 173.378906 200.511719 C 174.394531 209.125 176.363281 215.613281 179.234375 219.796875 C 182.082031 223.945312 185.921875 225.964844 190.964844 225.964844 C 195.753906 225.964844 198.972656 224.132812 200.800781 220.363281 C 202.664062 216.519531 203.175781 210.363281 202.320312 202.070312 L 199.8125 180.917969 C 198.789062 172.285156 196.847656 165.886719 194.042969 161.90625 C 191.265625 157.964844 187.46875 156.046875 182.429688 156.046875 Z M 190.964844 227.242188 C 185.542969 227.242188 181.242188 224.980469 178.183594 220.519531 C 175.191406 216.160156 173.148438 209.480469 172.113281 200.660156 L 169.613281 179.4375 C 168.761719 171.121094 169.339844 164.898438 171.324219 160.933594 C 173.371094 156.84375 177.105469 154.769531 182.429688 154.769531 C 187.839844 154.769531 192.097656 156.921875 195.089844 161.171875 C 198.015625 165.328125 200.03125 171.921875 201.082031 180.769531 L 203.589844 201.929688 C 204.472656 210.472656 203.921875 216.859375 201.949219 220.921875 C 199.914062 225.113281 196.21875 227.242188 190.964844 227.242188 Z M 180.953125 143.535156 C 170.9375 143.535156 163.785156 146.824219 159.699219 153.308594 C 155.5625 159.871094 154.253906 169.910156 155.808594 183.148438 L 157.707031 199.355469 C 159.347656 212.25 163.113281 222.113281 168.898438 228.660156 C 174.648438 235.171875 182.570312 238.46875 192.445312 238.46875 C 202.441406 238.46875 209.574219 235.113281 213.652344 228.492188 C 217.773438 221.796875 219.0625 211.675781 217.484375 198.410156 L 215.554688 182.207031 C 213.898438 169.339844 210.175781 159.554688 204.484375 153.136719 C 198.84375 146.765625 190.925781 143.535156 180.953125 143.535156 Z M 192.445312 239.746094 C 182.1875 239.746094 173.945312 236.300781 167.941406 229.503906 C 161.984375 222.761719 158.113281 212.667969 156.441406 199.511719 L 154.539062 183.296875 C 152.953125 169.761719 154.324219 159.445312 158.617188 152.628906 C 162.957031 145.75 170.46875 142.257812 180.953125 142.257812 C 191.304688 142.257812 199.546875 145.632812 205.441406 152.289062 C 211.300781 158.90625 215.128906 168.917969 216.820312 182.046875 L 218.75 198.257812 C 220.363281 211.820312 219.015625 222.214844 214.738281 229.160156 C 210.417969 236.183594 202.914062 239.746094 192.445312 239.746094 " fill-opacity="1" fill-rule="nonzero"/><path fill="#4253f0" d="M 269.8125 205.019531 L 245.351562 205.019531 C 245.128906 205.019531 244.921875 204.90625 244.804688 204.71875 C 244.691406 204.527344 244.679688 204.292969 244.78125 204.097656 L 263.628906 167.0625 L 264.519531 165.039062 C 264.636719 164.773438 264.914062 164.621094 265.199219 164.664062 C 265.480469 164.707031 265.703125 164.933594 265.738281 165.21875 L 268.664062 189.5 C 268.703125 189.851562 268.453125 190.167969 268.105469 190.210938 C 267.75 190.253906 267.4375 190.003906 267.394531 189.65625 L 264.746094 167.675781 L 246.394531 203.746094 L 269.09375 203.746094 L 268.570312 199.445312 C 268.53125 199.097656 268.78125 198.777344 269.128906 198.738281 C 269.488281 198.691406 269.796875 198.945312 269.839844 199.292969 L 270.445312 204.308594 C 270.464844 204.488281 270.410156 204.667969 270.289062 204.808594 C 270.167969 204.941406 269.996094 205.019531 269.8125 205.019531 Z M 289.453125 238.457031 L 273.835938 238.457031 C 273.515625 238.457031 273.242188 238.214844 273.203125 237.894531 L 270.753906 217.578125 L 230.929688 217.578125 C 230.617188 217.578125 230.351562 217.351562 230.296875 217.042969 L 228.714844 207.511719 C 228.691406 207.378906 228.710938 207.238281 228.773438 207.117188 L 261.480469 143.886719 C 261.589844 143.675781 261.8125 143.542969 262.046875 143.542969 L 278.132812 143.542969 C 278.457031 143.542969 278.730469 143.78125 278.769531 144.105469 L 280.742188 160.429688 C 280.785156 160.78125 280.535156 161.097656 280.183594 161.140625 C 279.832031 161.179688 279.515625 160.933594 279.472656 160.585938 L 277.570312 144.820312 L 262.4375 144.820312 L 230.003906 207.511719 L 231.46875 216.300781 L 271.324219 216.300781 C 271.644531 216.300781 271.917969 216.542969 271.957031 216.863281 L 274.402344 237.179688 L 288.730469 237.179688 L 286.714844 220.496094 C 286.675781 220.148438 286.925781 219.828125 287.273438 219.785156 C 287.621094 219.746094 287.941406 219.992188 287.984375 220.34375 L 290.085938 237.742188 C 290.109375 237.921875 290.050781 238.105469 289.929688 238.242188 C 289.808594 238.378906 289.632812 238.457031 289.453125 238.457031 " fill-opacity="1" fill-rule="nonzero"/><path fill="#4253f0" d="M 278.769531 290.496094 L 66.171875 290.496094 C 60.183594 290.496094 54.746094 285.589844 54.058594 279.554688 L 33.839844 102.484375 C 33.503906 99.542969 34.339844 96.773438 36.199219 94.695312 C 38.035156 92.640625 40.640625 91.507812 43.539062 91.507812 L 299.734375 91.507812 C 305.691406 91.507812 311.132812 96.367188 311.859375 102.335938 L 318.886719 159.917969 C 318.929688 160.265625 318.679688 160.585938 318.332031 160.628906 C 317.980469 160.667969 317.664062 160.421875 317.617188 160.070312 L 310.589844 102.492188 C 309.941406 97.140625 305.066406 92.785156 299.734375 92.785156 L 43.539062 92.785156 C 41.007812 92.785156 38.738281 93.765625 37.152344 95.542969 C 35.539062 97.347656 34.8125 99.761719 35.109375 102.339844 L 55.328125 279.410156 C 55.945312 284.820312 60.808594 289.222656 66.171875 289.222656 L 278.769531 289.222656 C 279.121094 289.222656 279.410156 289.507812 279.410156 289.859375 C 279.410156 290.210938 279.121094 290.496094 278.769531 290.496094 " fill-opacity="1" fill-rule="nonzero"/><path fill="#000000" d="M 239.910156 357.335938 L 150.015625 357.335938 C 149.664062 357.335938 149.378906 357.050781 149.378906 356.695312 C 149.378906 356.34375 149.664062 356.058594 150.015625 356.058594 L 239.910156 356.058594 C 241.050781 356.058594 241.945312 355.128906 241.945312 353.9375 L 241.945312 351.425781 C 241.945312 350.230469 241.035156 349.253906 239.910156 349.253906 L 213.855469 349.253906 C 213.503906 349.253906 213.214844 348.96875 213.214844 348.617188 C 213.214844 348.265625 213.503906 347.980469 213.855469 347.980469 L 239.910156 347.980469 C 241.738281 347.980469 243.21875 349.527344 243.21875 351.425781 L 243.21875 353.9375 C 243.21875 355.808594 241.738281 357.335938 239.910156 357.335938 " fill-opacity="1" fill-rule="nonzero"/><path fill="#4354e8" d="M 120.859375 350.53125 L 43.390625 350.53125 L 50.722656 336.113281 L 57.113281 323.554688 L 64.253906 309.523438 L 70.636719 296.972656 L 78.945312 280.65625 C 79.554688 279.460938 80.78125 278.710938 82.125 278.710938 C 83.46875 278.710938 84.695312 279.460938 85.304688 280.65625 L 93.613281 296.96875 L 100 309.519531 L 107.140625 323.546875 L 113.527344 336.113281 L 120.859375 350.53125 " fill-opacity="1" fill-rule="nonzero"/><path fill="#4253f0" d="M 100 309.703125 L 64.253906 309.703125 L 70.636719 296.949219 L 93.613281 296.949219 L 100 309.703125 " fill-opacity="1" fill-rule="nonzero"/><path fill="#4253f0" d="M 113.527344 336.070312 L 50.722656 336.070312 L 57.113281 323.738281 L 107.140625 323.738281 L 113.527344 336.070312 " fill-opacity="1" fill-rule="nonzero"/><path fill="#000000" d="M 44.046875 350.105469 L 119.441406 350.105469 L 106.1875 323.835938 L 84.351562 280.949219 C 83.851562 279.964844 82.851562 279.351562 81.742188 279.351562 C 80.636719 279.351562 79.632812 279.964844 79.132812 280.953125 L 64.4375 309.839844 L 57.300781 323.898438 L 50.910156 336.507812 Z M 120.476562 351.382812 L 43.007812 351.382812 C 42.785156 351.382812 42.582031 351.265625 42.464844 351.078125 C 42.347656 350.890625 42.339844 350.65625 42.4375 350.457031 L 49.769531 335.929688 L 56.160156 323.320312 L 69.6875 296.699219 L 77.992188 280.375 C 78.714844 278.957031 80.152344 278.074219 81.742188 278.074219 C 83.335938 278.074219 84.773438 278.957031 85.492188 280.367188 L 107.324219 323.257812 L 121.046875 350.457031 C 121.148438 350.65625 121.136719 350.890625 121.019531 351.078125 C 120.90625 351.265625 120.699219 351.382812 120.476562 351.382812 " fill-opacity="1" fill-rule="nonzero"/><path fill="#4253f0" d="M 128.042969 350.796875 C 128.042969 349.367188 126.878906 348.207031 125.449219 348.207031 L 38.421875 348.207031 C 36.988281 348.207031 35.824219 349.367188 35.824219 350.796875 L 35.824219 358.996094 C 35.824219 360.425781 36.988281 361.585938 38.421875 361.585938 L 125.449219 361.585938 C 126.878906 361.585938 128.042969 360.425781 128.042969 358.996094 L 128.042969 350.796875 " fill-opacity="1" fill-rule="nonzero"/><path fill="#000000" d="M 38.421875 348.84375 C 37.34375 348.84375 36.464844 349.71875 36.464844 350.796875 L 36.464844 358.992188 C 36.464844 360.074219 37.34375 360.949219 38.421875 360.949219 L 125.449219 360.949219 C 126.527344 360.949219 127.402344 360.074219 127.402344 358.992188 L 127.402344 350.796875 C 127.402344 349.71875 126.527344 348.84375 125.449219 348.84375 Z M 125.449219 362.226562 L 38.421875 362.226562 C 36.636719 362.226562 35.1875 360.777344 35.1875 358.992188 L 35.1875 350.796875 C 35.1875 349.015625 36.636719 347.566406 38.421875 347.566406 L 125.449219 347.566406 C 127.230469 347.566406 128.679688 349.015625 128.679688 350.796875 L 128.679688 358.992188 C 128.679688 360.777344 127.230469 362.226562 125.449219 362.226562 " fill-opacity="1" fill-rule="nonzero"/><path fill="#4253f0" d="M 336.597656 194.417969 C 346.667969 197.25 359.632812 208.144531 359.632812 227.910156 C 359.632812 242.148438 338.640625 254.210938 338.640625 254.210938 L 335.179688 245.71875 C 335.179688 245.71875 346.75 237.15625 346.195312 227.164062 C 345.75 219.148438 332.820312 216.660156 332.820312 216.660156 L 336.597656 194.417969 " fill-opacity="1" fill-rule="nonzero"/><path fill="#4253f0" d="M 332.347656 356.851562 L 325.109375 356.851562 L 325.109375 348.359375 L 332.347656 348.359375 L 332.347656 356.851562 " fill-opacity="1" fill-rule="nonzero"/><path fill="#4253f0" d="M 313.085938 355.277344 L 306.042969 356.9375 L 304.089844 348.675781 L 311.132812 347.011719 L 313.085938 355.277344 " fill-opacity="1" fill-rule="nonzero"/><path fill="#000000" d="M 338.328125 243.007812 C 338.328125 243.007812 340.488281 260.082031 338.828125 266.714844 C 337.171875 273.34375 333.289062 334.613281 333.289062 351.191406 L 323.535156 351.191406 L 319.128906 272.882812 L 305.511719 301.296875 C 304.527344 303.601562 304.273438 306.15625 304.796875 308.609375 L 312.835938 351.191406 L 303.707031 351.820312 L 288.445312 305.0625 C 287.765625 302.746094 287.714844 300.285156 288.300781 297.941406 L 300.675781 248.480469 L 338.328125 243.007812 " fill-opacity="1" fill-rule="nonzero"/><path fill="#ffffff" d="M 319.601562 271.792969 C 319.460938 271.792969 319.320312 271.746094 319.203125 271.652344 C 318.925781 271.433594 318.878906 271.03125 319.101562 270.753906 L 324.136719 264.464844 C 324.359375 264.191406 324.757812 264.144531 325.035156 264.367188 C 325.308594 264.585938 325.355469 264.988281 325.132812 265.261719 L 320.097656 271.550781 C 319.972656 271.710938 319.785156 271.792969 319.601562 271.792969 " fill-opacity="1" fill-rule="nonzero"/><path fill="#ffffff" d="M 332.820312 354.964844 L 324.324219 354.964844 L 323.0625 361.375 C 322.820312 362.609375 323.710938 363.769531 324.910156 363.769531 L 332.234375 363.769531 C 333.425781 363.769531 334.324219 362.609375 334.082031 361.375 L 332.820312 354.964844 " fill-opacity="1" fill-rule="nonzero"/><path fill="#000000" d="M 324.847656 355.601562 L 323.6875 361.496094 C 323.605469 361.921875 323.710938 362.355469 323.976562 362.679688 C 324.21875 362.972656 324.550781 363.132812 324.910156 363.132812 L 332.230469 363.132812 C 332.589844 363.132812 332.921875 362.972656 333.164062 362.679688 C 333.429688 362.355469 333.535156 361.921875 333.453125 361.496094 L 332.292969 355.601562 Z M 332.230469 364.40625 L 324.910156 364.40625 C 324.167969 364.40625 323.472656 364.074219 322.992188 363.488281 C 322.480469 362.871094 322.277344 362.050781 322.433594 361.25 L 323.695312 354.839844 C 323.753906 354.542969 324.015625 354.328125 324.320312 354.328125 L 332.820312 354.328125 C 333.125 354.328125 333.386719 354.542969 333.445312 354.839844 L 334.703125 361.25 C 334.863281 362.050781 334.660156 362.871094 334.148438 363.488281 C 333.667969 364.074219 332.96875 364.40625 332.230469 364.40625 " fill-opacity="1" fill-rule="nonzero"/><path fill="#000000" d="M 332.820312 362.363281 L 324.003906 362.363281 C 323.652344 362.363281 323.367188 362.078125 323.367188 361.726562 C 323.367188 361.375 323.652344 361.085938 324.003906 361.085938 L 332.820312 361.085938 C 333.171875 361.085938 333.457031 361.375 333.457031 361.726562 C 333.457031 362.078125 333.171875 362.363281 332.820312 362.363281 " fill-opacity="1" fill-rule="nonzero"/><path fill="#ffffff" d="M 313.304688 353.078125 L 315.632812 360.792969 C 316.039062 362.136719 315.21875 363.558594 314.015625 363.597656 L 298.03125 364.136719 C 297.039062 364.171875 296.644531 362.640625 297.480469 362.015625 C 300.082031 360.058594 303.542969 357.347656 304.492188 356.058594 C 306.699219 353.078125 308.902344 355.6875 308.902344 355.6875 C 308.902344 355.6875 310.472656 353.078125 313.304688 353.078125 " fill-opacity="1" fill-rule="nonzero"/><path fill="#000000" d="M 306.792969 355.269531 C 306.773438 355.269531 306.757812 355.269531 306.738281 355.269531 C 306.144531 355.292969 305.566406 355.683594 305.007812 356.4375 C 304.214844 357.511719 301.8125 359.558594 297.867188 362.523438 C 297.644531 362.6875 297.628906 363 297.707031 363.226562 C 297.738281 363.308594 297.824219 363.503906 298 363.503906 C 298.003906 363.503906 298.003906 363.503906 298.007812 363.503906 L 313.996094 362.960938 C 314.410156 362.945312 314.671875 362.660156 314.796875 362.492188 C 315.089844 362.078125 315.179688 361.496094 315.023438 360.980469 L 312.839844 353.742188 C 310.699219 354.003906 309.460938 355.996094 309.445312 356.015625 C 309.339844 356.191406 309.15625 356.304688 308.949219 356.320312 C 308.746094 356.335938 308.546875 356.253906 308.414062 356.097656 C 308.40625 356.09375 307.6875 355.269531 306.792969 355.269531 Z M 298 364.777344 C 297.332031 364.777344 296.75 364.339844 296.503906 363.648438 C 296.21875 362.84375 296.460938 361.984375 297.097656 361.503906 C 300.835938 358.695312 303.28125 356.628906 303.980469 355.679688 C 304.785156 354.59375 305.699219 354.027344 306.703125 353.992188 C 307.59375 353.949219 308.328125 354.375 308.808594 354.738281 C 309.515625 353.878906 311.042969 352.4375 313.308594 352.4375 C 313.585938 352.4375 313.835938 352.621094 313.917969 352.894531 L 316.242188 360.609375 C 316.519531 361.511719 316.363281 362.496094 315.832031 363.234375 C 315.394531 363.847656 314.738281 364.210938 314.039062 364.234375 L 298.054688 364.777344 C 298.03125 364.777344 298.015625 364.777344 298 364.777344 " fill-opacity="1" fill-rule="nonzero"/><path fill="#ffffff" d="M 299.773438 361.726562 L 314.25 361.097656 L 299.773438 361.726562 " fill-opacity="1" fill-rule="nonzero"/><path fill="#000000" d="M 299.773438 362.363281 C 299.433594 362.363281 299.148438 362.097656 299.136719 361.753906 C 299.121094 361.402344 299.394531 361.105469 299.746094 361.089844 L 314.222656 360.457031 C 314.585938 360.4375 314.875 360.714844 314.886719 361.070312 C 314.902344 361.421875 314.628906 361.71875 314.277344 361.734375 L 299.800781 362.363281 C 299.789062 362.363281 299.78125 362.363281 299.773438 362.363281 " fill-opacity="1" fill-rule="nonzero"/><path fill="#ffffff" d="M 321.804688 190.015625 L 329.671875 195.363281 L 308.003906 194.328125 L 314.25 190.332031 L 315.09375 186.460938 C 313.984375 186.296875 312.460938 186.1875 311.972656 185.582031 C 311.117188 184.515625 311.503906 180.824219 311.503906 180.824219 L 310.566406 180.089844 C 310.464844 180.039062 310.390625 179.949219 310.359375 179.84375 C 310.332031 179.734375 310.351562 179.617188 310.40625 179.523438 C 311.203125 178.253906 311.957031 177.84375 312.308594 176.550781 C 312.65625 175.273438 312.503906 175.46875 313.878906 172.71875 L 322.121094 172.707031 L 322.164062 178.878906 C 322.164062 178.878906 323.429688 178.066406 324.230469 179.167969 C 324.8125 179.96875 323.523438 182.648438 322.476562 182.648438 L 321.804688 190.015625 " fill-opacity="1" fill-rule="nonzero"/><path fill="#000000" d="M 310.035156 193.785156 L 327.441406 194.617188 L 321.445312 190.542969 C 321.253906 190.414062 321.148438 190.191406 321.167969 189.957031 L 321.84375 182.589844 C 321.875 182.261719 322.148438 182.011719 322.476562 182.011719 C 322.566406 182.007812 322.925781 181.777344 323.300781 181.097656 C 323.71875 180.34375 323.789062 179.679688 323.710938 179.535156 C 323.277344 178.945312 322.589844 179.363281 322.511719 179.414062 C 322.316406 179.542969 322.066406 179.550781 321.863281 179.441406 C 321.65625 179.328125 321.53125 179.117188 321.527344 178.882812 L 321.484375 173.347656 L 314.273438 173.359375 C 313.289062 175.339844 313.242188 175.523438 313.046875 176.261719 C 313.011719 176.394531 312.972656 176.542969 312.925781 176.71875 C 312.667969 177.664062 312.222656 178.207031 311.75 178.785156 C 311.527344 179.054688 311.300781 179.328125 311.070312 179.675781 L 311.898438 180.324219 C 312.070312 180.460938 312.160156 180.675781 312.136719 180.894531 C 311.992188 182.320312 311.992188 184.589844 312.472656 185.183594 C 312.726562 185.5 313.941406 185.664062 314.664062 185.757812 C 314.84375 185.785156 315.019531 185.808594 315.1875 185.832031 C 315.359375 185.859375 315.515625 185.953125 315.617188 186.097656 C 315.71875 186.246094 315.75 186.425781 315.714844 186.597656 L 314.875 190.46875 C 314.839844 190.632812 314.738281 190.777344 314.597656 190.871094 Z M 329.671875 196 C 329.664062 196 329.648438 196 329.640625 196 L 307.976562 194.964844 C 307.699219 194.949219 307.460938 194.761719 307.386719 194.492188 C 307.316406 194.222656 307.425781 193.9375 307.664062 193.789062 L 313.683594 189.9375 L 314.320312 187.003906 C 313.171875 186.84375 312.023438 186.664062 311.472656 185.984375 C 310.625 184.917969 310.746094 182.207031 310.835938 181.117188 L 310.207031 180.621094 C 309.984375 180.484375 309.816406 180.269531 309.746094 180.011719 C 309.667969 179.734375 309.714844 179.433594 309.871094 179.1875 C 310.183594 178.679688 310.492188 178.304688 310.761719 177.976562 C 311.195312 177.449219 311.507812 177.066406 311.695312 176.382812 C 311.738281 176.210938 311.777344 176.070312 311.8125 175.941406 C 312.046875 175.039062 312.125 174.796875 313.308594 172.433594 C 313.414062 172.21875 313.636719 172.085938 313.878906 172.082031 L 322.117188 172.070312 C 322.117188 172.070312 322.117188 172.070312 322.121094 172.070312 C 322.46875 172.070312 322.753906 172.355469 322.753906 172.703125 L 322.796875 177.980469 C 323.457031 177.882812 324.207031 178.046875 324.75 178.792969 C 325.382812 179.667969 324.722656 181.128906 324.503906 181.554688 C 324.292969 181.972656 323.789062 182.820312 323.074219 183.152344 L 322.472656 189.699219 L 330.03125 194.835938 C 330.265625 194.996094 330.367188 195.292969 330.277344 195.566406 C 330.191406 195.828125 329.945312 196 329.671875 196 " fill-opacity="1" fill-rule="nonzero"/><path fill="#000000" d="M 322.878906 185.410156 C 321.21875 185.960938 319.582031 184.664062 319.289062 184.429688 C 318.132812 183.515625 317.191406 181.886719 317.65625 181.167969 C 317.910156 180.773438 318.363281 180.988281 318.960938 180.515625 C 319.839844 179.816406 320.089844 178.308594 319.613281 177.90625 C 319.226562 177.570312 318.617188 178.210938 317.980469 177.90625 C 317.203125 177.53125 317.601562 176.339844 317 175.292969 C 316.019531 173.578125 313.734375 174.613281 311.972656 172.792969 C 310.824219 171.597656 310.328125 169.617188 310.984375 168.492188 C 311.175781 168.167969 311.46875 167.878906 311.886719 167.648438 C 314.652344 166.125 315.066406 168.210938 317.761719 168.234375 C 323.300781 168.28125 326.019531 169.386719 327.027344 171.683594 C 327.707031 173.242188 326.875 175.722656 326.472656 176.925781 C 326.335938 177.328125 326.058594 178.085938 325.816406 179.210938 C 325.558594 180.445312 325.636719 180.757812 325.492188 181.496094 C 325.386719 182.011719 324.835938 184.757812 322.878906 185.410156 " fill-opacity="1" fill-rule="nonzero"/><path fill="#ffffff" d="M 310.464844 175.746094 C 310.464844 175.746094 312.910156 176.648438 313.445312 175.425781 C 313.976562 174.207031 313.125 173.195312 314.453125 172.238281 C 315.785156 171.28125 318.976562 170.269531 317.808594 168.835938 C 316.632812 167.398438 313.070312 166.816406 312.0625 168.515625 C 311.050781 170.21875 310.304688 173.140625 309.613281 173.195312 C 308.921875 173.246094 309.179688 175.445312 310.464844 175.746094 " fill-opacity="1" fill-rule="nonzero"/><path fill="#000000" d="M 310.683594 175.148438 C 311.453125 175.429688 312.671875 175.601562 312.859375 175.171875 C 313.007812 174.820312 313.007812 174.484375 313.007812 174.09375 C 313.003906 173.382812 313 172.496094 314.082031 171.71875 C 314.453125 171.453125 314.925781 171.195312 315.429688 170.925781 C 316.140625 170.542969 317.335938 169.902344 317.417969 169.484375 C 317.429688 169.421875 317.394531 169.339844 317.3125 169.238281 C 316.738281 168.535156 315.304688 168.039062 314.105469 168.125 C 313.6875 168.15625 312.9375 168.289062 312.605469 168.839844 C 312.222656 169.492188 311.859375 170.375 311.539062 171.15625 C 310.933594 172.628906 310.546875 173.574219 309.882812 173.789062 C 309.863281 173.949219 309.886719 174.265625 310.046875 174.59375 C 310.125 174.761719 310.308594 175.054688 310.605469 175.125 C 310.632812 175.128906 310.660156 175.140625 310.683594 175.148438 Z M 312.148438 176.707031 C 311.320312 176.707031 310.507812 176.4375 310.277344 176.359375 C 309.027344 176.039062 308.539062 174.605469 308.605469 173.722656 C 308.660156 172.988281 309.058594 172.652344 309.449219 172.574219 C 309.675781 172.328125 310.085938 171.339844 310.355469 170.671875 C 310.695312 169.851562 311.078125 168.917969 311.511719 168.1875 C 311.972656 167.410156 312.863281 166.9375 314.007812 166.851562 C 315.644531 166.730469 317.453125 167.398438 318.300781 168.433594 C 318.71875 168.941406 318.730469 169.421875 318.667969 169.730469 C 318.46875 170.742188 317.226562 171.40625 316.03125 172.050781 C 315.566406 172.300781 315.132812 172.535156 314.824219 172.757812 C 314.28125 173.148438 314.28125 173.464844 314.28125 174.089844 C 314.285156 174.53125 314.289062 175.082031 314.027344 175.679688 C 313.679688 176.480469 312.910156 176.707031 312.148438 176.707031 " fill-opacity="1" fill-rule="nonzero"/><path fill="#4253f0" d="M 299.773438 193.164062 C 299.773438 193.164062 318.65625 187.816406 336.597656 194.421875 C 337.976562 202.367188 338.921875 209.230469 339.585938 214.664062 C 340.75 224.234375 340.023438 221.175781 341.476562 235.144531 C 342.375 243.828125 342.613281 244.621094 341.789062 246.152344 C 337.625 253.867188 320.851562 253.445312 314.40625 251.816406 C 313.949219 251.699219 312.058594 251.199219 308.957031 250.417969 C 305.414062 249.523438 302.503906 248.820312 300.558594 248.355469 C 299.507812 247.878906 298.089844 247.035156 297.09375 245.523438 C 294.878906 242.140625 296.363281 237.757812 297.09375 234.832031 C 298.984375 227.316406 296.503906 227.152344 297.09375 213.445312 C 297.304688 208.652344 297.90625 201.691406 299.773438 193.164062 " fill-opacity="1" fill-rule="nonzero"/><path fill="#ffffff" d="M 334.316406 252.03125 C 334.003906 252.03125 333.730469 251.804688 333.683594 251.488281 C 333.632812 251.140625 333.875 250.816406 334.226562 250.765625 C 334.566406 250.714844 342.589844 249.4375 341.527344 241.839844 C 341.480469 241.488281 341.722656 241.167969 342.074219 241.117188 C 342.417969 241.070312 342.746094 241.3125 342.792969 241.660156 C 344.03125 250.527344 334.503906 252.011719 334.40625 252.027344 C 334.375 252.03125 334.34375 252.03125 334.316406 252.03125 " fill-opacity="1" fill-rule="nonzero"/><path fill="#ffffff" d="M 312.445312 244.695312 C 312.285156 244.695312 312.121094 244.636719 311.996094 244.511719 C 304.46875 237.097656 302.917969 225.878906 302.851562 225.40625 C 302.808594 225.054688 303.054688 224.734375 303.402344 224.6875 C 303.753906 224.644531 304.074219 224.886719 304.121094 225.238281 C 304.136719 225.351562 305.683594 236.503906 312.894531 243.601562 C 313.144531 243.851562 313.148438 244.253906 312.898438 244.503906 C 312.777344 244.632812 312.609375 244.695312 312.445312 244.695312 " fill-opacity="1" fill-rule="nonzero"/><path fill="#4253f0" d="M 293.070312 183.039062 C 293.082031 182.703125 293.324219 182.421875 293.652344 182.359375 L 312.308594 176.550781 L 310.691406 172.707031 C 310.691406 172.707031 285.429688 164.695312 273.582031 174.917969 C 261.726562 185.140625 285.554688 210.398438 299.003906 216.246094 L 311.316406 191.546875 L 293.605469 183.761719 C 293.277344 183.675781 293.058594 183.375 293.070312 183.039062 " fill-opacity="1" fill-rule="nonzero"/><path fill="#ffffff" d="M 350.796875 120.238281 C 350.796875 134.414062 339.296875 145.902344 325.109375 145.902344 C 310.921875 145.902344 299.421875 134.414062 299.421875 120.238281 C 299.421875 106.0625 310.921875 94.570312 325.109375 94.570312 C 339.296875 94.570312 350.796875 106.0625 350.796875 120.238281 " fill-opacity="1" fill-rule="nonzero"/><path fill="#000000" d="M 325.109375 95.207031 C 311.296875 95.207031 300.058594 106.4375 300.058594 120.238281 C 300.058594 134.039062 311.296875 145.265625 325.109375 145.265625 C 338.917969 145.265625 350.15625 134.039062 350.15625 120.238281 C 350.15625 106.4375 338.917969 95.207031 325.109375 95.207031 Z M 325.109375 146.542969 C 310.59375 146.542969 298.78125 134.742188 298.78125 120.238281 C 298.78125 105.734375 310.59375 93.933594 325.109375 93.933594 C 339.625 93.933594 351.433594 105.734375 351.433594 120.238281 C 351.433594 134.742188 339.625 146.542969 325.109375 146.542969 " fill-opacity="1" fill-rule="nonzero"/><path fill="#4354e8" d="M 341.292969 120.238281 C 341.292969 129.167969 334.046875 136.40625 325.109375 136.40625 C 316.167969 136.40625 308.925781 129.167969 308.925781 120.238281 C 308.925781 111.308594 316.167969 104.066406 325.109375 104.066406 C 334.046875 104.066406 341.292969 111.308594 341.292969 120.238281 " fill-opacity="1" fill-rule="nonzero"/><path fill="#ffffff" d="M 318.148438 127.558594 C 318.09375 127.558594 318.035156 127.550781 317.980469 127.535156 C 317.640625 127.441406 317.4375 127.09375 317.53125 126.75 C 318.480469 123.292969 321.652344 120.878906 325.242188 120.878906 C 328.660156 120.878906 331.703125 123.042969 332.808594 126.273438 C 332.925781 126.605469 332.75 126.96875 332.414062 127.082031 C 332.078125 127.195312 331.71875 127.019531 331.601562 126.6875 C 330.671875 123.972656 328.117188 122.152344 325.242188 122.152344 C 322.226562 122.152344 319.558594 124.179688 318.761719 127.089844 C 318.6875 127.371094 318.429688 127.558594 318.148438 127.558594 " fill-opacity="1" fill-rule="nonzero"/><path fill="#ffffff" d="M 319.808594 117.5 C 319.644531 117.5 319.480469 117.4375 319.355469 117.3125 L 315.722656 113.679688 C 315.472656 113.429688 315.472656 113.027344 315.722656 112.78125 C 315.972656 112.53125 316.375 112.53125 316.625 112.78125 L 320.261719 116.410156 C 320.511719 116.660156 320.511719 117.0625 320.261719 117.3125 C 320.136719 117.4375 319.972656 117.5 319.808594 117.5 " fill-opacity="1" fill-rule="nonzero"/><path fill="#ffffff" d="M 319.808594 117.5 C 319.644531 117.5 319.480469 117.4375 319.355469 117.3125 L 315.722656 113.679688 C 315.472656 113.429688 315.472656 113.027344 315.722656 112.78125 C 315.972656 112.53125 316.375 112.53125 316.625 112.78125 L 320.261719 116.410156 C 320.511719 116.660156 320.511719 117.0625 320.261719 117.3125 C 320.136719 117.4375 319.972656 117.5 319.808594 117.5 " fill-opacity="1" fill-rule="nonzero"/><path fill="#ffffff" d="M 316.171875 117.5 C 316.011719 117.5 315.847656 117.4375 315.722656 117.3125 C 315.472656 117.0625 315.472656 116.660156 315.722656 116.410156 L 319.355469 112.78125 C 319.605469 112.53125 320.011719 112.53125 320.261719 112.78125 C 320.511719 113.027344 320.511719 113.429688 320.261719 113.679688 L 316.625 117.3125 C 316.5 117.4375 316.339844 117.5 316.171875 117.5 " fill-opacity="1" fill-rule="nonzero"/><path fill="#ffffff" d="M 334.277344 117.503906 C 334.113281 117.503906 333.953125 117.441406 333.828125 117.316406 L 330.191406 113.683594 C 329.9375 113.433594 329.9375 113.03125 330.191406 112.78125 C 330.441406 112.53125 330.84375 112.53125 331.09375 112.78125 L 334.730469 116.414062 C 334.980469 116.660156 334.980469 117.066406 334.730469 117.316406 C 334.605469 117.441406 334.4375 117.503906 334.277344 117.503906 " fill-opacity="1" fill-rule="nonzero"/><path fill="#ffffff" d="M 330.640625 117.503906 C 330.480469 117.503906 330.316406 117.441406 330.191406 117.316406 C 329.9375 117.066406 329.9375 116.660156 330.191406 116.414062 L 333.828125 112.78125 C 334.074219 112.53125 334.476562 112.53125 334.730469 112.78125 C 334.980469 113.03125 334.980469 113.433594 334.730469 113.683594 L 331.09375 117.316406 C 330.96875 117.441406 330.804688 117.503906 330.640625 117.503906 " fill-opacity="1" fill-rule="nonzero"/><path fill="#000000" d="M 238.363281 40.066406 C 238.253906 40.066406 238.144531 40.042969 238.035156 40 C 212.792969 29.484375 183.671875 26.273438 153.824219 30.71875 C 153.359375 30.785156 152.925781 30.46875 152.855469 30 C 152.789062 29.539062 153.109375 29.105469 153.574219 29.035156 C 183.726562 24.546875 213.160156 27.796875 238.691406 38.425781 C 239.125 38.609375 239.332031 39.105469 239.148438 39.539062 C 239.011719 39.867188 238.695312 40.0625 238.363281 40.066406 " fill-opacity="1" fill-rule="nonzero"/><path fill="#000000" d="M 250.519531 36.4375 C 250.390625 36.4375 250.253906 36.40625 250.128906 36.339844 C 247.960938 35.214844 245.710938 34.121094 243.441406 33.097656 C 211.6875 18.761719 173.261719 16.050781 135.242188 25.460938 C 134.785156 25.574219 134.324219 25.296875 134.210938 24.84375 C 134.097656 24.386719 134.378906 23.921875 134.832031 23.8125 C 173.222656 14.308594 212.042969 17.054688 244.144531 31.546875 C 246.441406 32.582031 248.71875 33.6875 250.914062 34.832031 C 251.332031 35.046875 251.492188 35.5625 251.277344 35.976562 C 251.121094 36.269531 250.828125 36.4375 250.519531 36.4375 " fill-opacity="1" fill-rule="nonzero"/><path fill="#000000" d="M 277.335938 66.507812 C 276.996094 66.507812 276.714844 66.242188 276.699219 65.902344 C 276.679688 65.546875 276.953125 65.25 277.304688 65.234375 L 280.371094 65.085938 C 280.722656 65.070312 281.023438 65.339844 281.039062 65.691406 C 281.054688 66.042969 280.78125 66.34375 280.433594 66.359375 L 277.367188 66.507812 C 277.355469 66.507812 277.34375 66.507812 277.335938 66.507812 " fill-opacity="1" fill-rule="nonzero"/><path fill="#000000" d="M 288.066406 65.992188 C 287.726562 65.992188 287.445312 65.726562 287.429688 65.386719 C 287.410156 65.035156 287.683594 64.734375 288.035156 64.71875 L 291.101562 64.570312 C 291.445312 64.554688 291.753906 64.824219 291.769531 65.175781 C 291.785156 65.527344 291.515625 65.828125 291.160156 65.84375 L 288.097656 65.992188 C 288.085938 65.992188 288.074219 65.992188 288.066406 65.992188 " fill-opacity="1" fill-rule="nonzero"/><path fill="#000000" d="M 284.605469 73.070312 C 284.265625 73.070312 283.988281 72.808594 283.964844 72.464844 L 283.804688 69.402344 C 283.785156 69.050781 284.054688 68.75 284.40625 68.730469 C 284.765625 68.722656 285.058594 68.984375 285.078125 69.335938 L 285.242188 72.398438 C 285.261719 72.75 284.992188 73.050781 284.640625 73.070312 C 284.628906 73.070312 284.617188 73.070312 284.605469 73.070312 " fill-opacity="1" fill-rule="nonzero"/><path fill="#000000" d="M 284.027344 62.347656 C 283.6875 62.347656 283.410156 62.082031 283.390625 61.742188 L 283.222656 58.679688 C 283.207031 58.328125 283.476562 58.027344 283.828125 58.003906 C 284.175781 57.996094 284.480469 58.257812 284.5 58.609375 L 284.664062 61.671875 C 284.683594 62.023438 284.414062 62.324219 284.0625 62.34375 C 284.050781 62.347656 284.039062 62.347656 284.027344 62.347656 " fill-opacity="1" fill-rule="nonzero"/><path fill="#000000" d="M 256.261719 324.453125 C 256.148438 324.453125 256.03125 324.421875 255.925781 324.359375 L 253.742188 323.007812 C 253.445312 322.824219 253.351562 322.429688 253.535156 322.132812 C 253.722656 321.832031 254.117188 321.738281 254.414062 321.925781 L 256.597656 323.273438 C 256.898438 323.457031 256.992188 323.851562 256.804688 324.152344 C 256.683594 324.347656 256.476562 324.453125 256.261719 324.453125 " fill-opacity="1" fill-rule="nonzero"/><path fill="#000000" d="M 263.902344 329.175781 C 263.789062 329.175781 263.671875 329.144531 263.566406 329.082031 L 261.382812 327.730469 C 261.085938 327.546875 260.992188 327.152344 261.175781 326.851562 C 261.363281 326.554688 261.757812 326.460938 262.054688 326.648438 L 264.238281 327.996094 C 264.539062 328.179688 264.632812 328.574219 264.445312 328.875 C 264.324219 329.070312 264.117188 329.175781 263.902344 329.175781 " fill-opacity="1" fill-rule="nonzero"/><path fill="#000000" d="M 255.980469 331.066406 C 255.867188 331.066406 255.75 331.039062 255.644531 330.972656 C 255.34375 330.789062 255.25 330.398438 255.433594 330.097656 L 256.773438 327.90625 C 256.957031 327.605469 257.351562 327.511719 257.648438 327.695312 C 257.949219 327.878906 258.046875 328.273438 257.863281 328.574219 L 256.523438 330.761719 C 256.402344 330.957031 256.191406 331.066406 255.980469 331.066406 " fill-opacity="1" fill-rule="nonzero"/><path fill="#000000" d="M 260.664062 323.402344 C 260.550781 323.402344 260.433594 323.375 260.332031 323.308594 C 260.03125 323.125 259.933594 322.734375 260.121094 322.433594 L 261.457031 320.246094 C 261.640625 319.941406 262.035156 319.847656 262.335938 320.03125 C 262.636719 320.214844 262.730469 320.609375 262.546875 320.910156 L 261.210938 323.097656 C 261.089844 323.296875 260.878906 323.402344 260.664062 323.402344 " fill-opacity="1" fill-rule="nonzero"/><path fill="#000000" d="M 91.050781 56.398438 C 90.984375 56.398438 90.921875 56.386719 90.859375 56.367188 L 88.476562 55.625 C 88.140625 55.519531 87.953125 55.160156 88.058594 54.824219 C 88.164062 54.488281 88.519531 54.300781 88.859375 54.40625 L 91.238281 55.152344 C 91.574219 55.257812 91.765625 55.613281 91.660156 55.949219 C 91.574219 56.222656 91.320312 56.398438 91.050781 56.398438 " fill-opacity="1" fill-rule="nonzero"/><path fill="#000000" d="M 82.714844 53.792969 C 82.652344 53.792969 82.589844 53.785156 82.523438 53.765625 L 80.144531 53.019531 C 79.808594 52.914062 79.621094 52.554688 79.726562 52.21875 C 79.832031 51.882812 80.1875 51.695312 80.523438 51.800781 L 82.90625 52.546875 C 83.242188 52.652344 83.429688 53.007812 83.324219 53.347656 C 83.238281 53.617188 82.988281 53.792969 82.714844 53.792969 " fill-opacity="1" fill-rule="nonzero"/><path fill="#000000" d="M 86.605469 51.742188 C 86.542969 51.742188 86.480469 51.734375 86.417969 51.714844 C 86.082031 51.613281 85.890625 51.253906 85.996094 50.917969 L 86.726562 48.535156 C 86.828125 48.195312 87.1875 48.007812 87.523438 48.109375 C 87.859375 48.214844 88.050781 48.574219 87.945312 48.910156 L 87.214844 51.292969 C 87.132812 51.566406 86.878906 51.742188 86.605469 51.742188 " fill-opacity="1" fill-rule="nonzero"/><path fill="#000000" d="M 84.046875 60.085938 C 83.984375 60.085938 83.921875 60.078125 83.859375 60.058594 C 83.523438 59.957031 83.335938 59.597656 83.4375 59.261719 L 84.167969 56.878906 C 84.269531 56.542969 84.628906 56.351562 84.964844 56.453125 C 85.300781 56.558594 85.492188 56.917969 85.386719 57.25 L 84.65625 59.636719 C 84.574219 59.910156 84.320312 60.085938 84.046875 60.085938 " fill-opacity="1" fill-rule="nonzero"/><path fill="#000000" d="M 125.992188 25.304688 C 125.886719 25.304688 125.78125 25.3125 125.671875 25.328125 C 124.554688 25.503906 123.789062 26.554688 123.964844 27.671875 C 124.050781 28.214844 124.34375 28.6875 124.785156 29.011719 C 125.230469 29.332031 125.769531 29.460938 126.3125 29.378906 C 127.429688 29.203125 128.195312 28.148438 128.019531 27.035156 C 127.859375 26.023438 126.984375 25.304688 125.992188 25.304688 Z M 125.984375 30.679688 C 125.289062 30.679688 124.609375 30.460938 124.035156 30.042969 C 123.316406 29.519531 122.84375 28.75 122.707031 27.871094 C 122.417969 26.058594 123.664062 24.355469 125.476562 24.066406 C 127.285156 23.78125 128.992188 25.023438 129.28125 26.835938 C 129.566406 28.644531 128.324219 30.355469 126.511719 30.640625 C 126.335938 30.664062 126.160156 30.679688 125.984375 30.679688 " fill-opacity="1" fill-rule="nonzero"/></svg>