<svg xmlns="http://www.w3.org/2000/svg" xmlns:xlink="http://www.w3.org/1999/xlink" width="500" zoomAndPan="magnify" viewBox="0 0 375 374.999991" height="500" preserveAspectRatio="xMidYMid meet" version="1.0"><defs><clipPath id="b40839027b"><path d="M 21 84 L 354 84 L 354 371.042969 L 21 371.042969 Z M 21 84 " clip-rule="nonzero"/></clipPath><clipPath id="941049a875"><path d="M 3.648438 153 L 371.148438 153 L 371.148438 371.042969 L 3.648438 371.042969 Z M 3.648438 153 " clip-rule="nonzero"/></clipPath></defs><path fill="#4253f0" d="M 176.125 118.785156 L 158.941406 90.117188 L 44.273438 90.117188 L 27.070312 118.785156 L 27.070312 365.304688 L 348.125 365.304688 L 348.125 118.785156 L 176.125 118.785156 " fill-opacity="1" fill-rule="nonzero"/><g clip-path="url(#b40839027b)"><path fill="#100f0d" d="M 32.8125 359.582031 L 342.386719 359.582031 L 342.386719 124.523438 L 172.886719 124.523438 L 155.683594 95.859375 L 47.53125 95.859375 L 32.8125 120.371094 Z M 353.847656 371.042969 L 21.347656 371.042969 L 21.347656 117.214844 L 41.035156 84.394531 L 162.179688 84.394531 L 179.382812 113.0625 L 353.847656 113.0625 L 353.847656 371.042969 " fill-opacity="1" fill-rule="nonzero"/></g><path fill="#4253f0" d="M 9.886719 158.914062 L 27.070312 365.304688 L 348.125 365.304688 L 365.3125 158.914062 L 9.886719 158.914062 " fill-opacity="1" fill-rule="nonzero"/><g clip-path="url(#941049a875)"><path fill="#100f0d" d="M 32.355469 359.582031 L 342.84375 359.582031 L 359.09375 164.65625 L 16.101562 164.65625 Z M 353.390625 371.042969 L 21.804688 371.042969 L 3.648438 153.191406 L 371.550781 153.191406 L 353.390625 371.042969 " fill-opacity="1" fill-rule="nonzero"/></g><path fill="#e80000" d="M 187.609375 313.710938 C 177.515625 313.710938 168.121094 310.769531 160.171875 305.765625 L 231.253906 234.683594 C 236.261719 242.628906 239.199219 252.027344 239.199219 262.117188 C 239.199219 290.605469 216.097656 313.710938 187.609375 313.710938 Z M 187.609375 210.527344 C 197.699219 210.527344 207.078125 213.464844 215.023438 218.472656 L 143.960938 289.554688 C 138.9375 281.585938 135.996094 272.210938 135.996094 262.117188 C 135.996094 233.628906 159.101562 210.527344 187.609375 210.527344 Z M 187.609375 187.578125 C 146.445312 187.578125 113.070312 220.957031 113.070312 262.117188 C 113.070312 303.28125 146.445312 336.636719 187.609375 336.636719 C 228.75 336.636719 262.125 303.28125 262.125 262.117188 C 262.125 220.957031 228.75 187.578125 187.609375 187.578125 " fill-opacity="1" fill-rule="nonzero"/><path fill="#100f0d" d="M 187.609375 216.246094 C 162.316406 216.246094 141.738281 236.828125 141.738281 262.117188 C 141.738281 268.277344 142.988281 274.335938 145.390625 279.996094 L 205.46875 219.921875 C 199.824219 217.5 193.765625 216.246094 187.609375 216.246094 Z M 142.929688 298.671875 L 139.09375 292.59375 C 133.3125 283.433594 130.273438 272.886719 130.273438 262.117188 C 130.273438 230.511719 155.980469 204.785156 187.609375 204.785156 C 198.375 204.785156 208.90625 207.84375 218.082031 213.625 L 224.160156 217.4375 Z M 169.726562 304.3125 C 175.371094 306.71875 181.429688 307.988281 187.609375 307.988281 C 212.898438 307.988281 233.460938 287.40625 233.460938 262.117188 C 233.460938 255.960938 232.207031 249.878906 229.804688 244.238281 Z M 187.609375 319.453125 C 176.820312 319.453125 166.292969 316.390625 157.113281 310.613281 L 151.035156 306.777344 L 232.265625 225.542969 L 236.101562 231.625 C 241.882812 240.800781 244.921875 251.351562 244.921875 262.117188 C 244.921875 293.726562 219.214844 319.453125 187.609375 319.453125 Z M 187.609375 193.320312 C 149.664062 193.320312 118.8125 224.171875 118.8125 262.117188 C 118.8125 300.042969 149.664062 330.914062 187.609375 330.914062 C 225.53125 330.914062 256.382812 300.042969 256.382812 262.117188 C 256.382812 224.171875 225.53125 193.320312 187.609375 193.320312 Z M 187.609375 342.378906 C 143.347656 342.378906 107.347656 306.378906 107.347656 262.117188 C 107.347656 217.855469 143.347656 181.859375 187.609375 181.859375 C 231.851562 181.859375 267.867188 217.855469 267.867188 262.117188 C 267.867188 306.378906 231.851562 342.378906 187.609375 342.378906 " fill-opacity="1" fill-rule="nonzero"/><path fill="#ffffff" d="M 296.535156 67.191406 L 239.199219 9.855469 L 78.679688 9.855469 L 78.679688 158.914062 L 296.535156 158.914062 L 296.535156 67.191406 " fill-opacity="1" fill-rule="nonzero"/><path fill="#100f0d" d="M 84.402344 153.191406 L 290.792969 153.191406 L 290.792969 69.574219 L 236.816406 15.597656 L 84.402344 15.597656 Z M 302.253906 164.65625 L 72.941406 164.65625 L 72.941406 4.136719 L 241.5625 4.136719 L 302.253906 64.828125 L 302.253906 164.65625 " fill-opacity="1" fill-rule="nonzero"/><path fill="#ff5a5a" d="M 239.199219 67.191406 L 295.144531 67.191406 C 295.660156 67.191406 295.917969 66.574219 295.539062 66.21875 L 240.171875 10.851562 C 239.816406 10.472656 239.199219 10.730469 239.199219 11.246094 L 239.199219 67.191406 " fill-opacity="1" fill-rule="nonzero"/><path fill="#100f0d" d="M 244.921875 61.46875 L 282.6875 61.46875 L 244.921875 23.703125 Z M 295.144531 72.933594 L 233.460938 72.933594 L 233.460938 11.246094 C 233.460938 8.683594 234.988281 6.402344 237.351562 5.425781 C 239.71875 4.433594 242.417969 4.96875 244.226562 6.796875 L 299.59375 62.164062 C 301.402344 63.972656 301.957031 66.675781 300.964844 69.039062 C 299.992188 71.402344 297.707031 72.933594 295.144531 72.933594 " fill-opacity="1" fill-rule="nonzero"/><path fill="#100f0d" d="M 193.328125 130.246094 L 181.867188 130.246094 L 181.867188 101.597656 L 193.328125 101.597656 L 193.328125 130.246094 " fill-opacity="1" fill-rule="nonzero"/><path fill="#100f0d" d="M 155.304688 137.515625 L 145.949219 109.425781 L 156.816406 105.8125 L 166.191406 133.882812 L 155.304688 137.515625 " fill-opacity="1" fill-rule="nonzero"/><path fill="#100f0d" d="M 219.890625 137.515625 L 209.003906 133.882812 L 218.378906 105.8125 L 229.246094 109.425781 L 219.890625 137.515625 " fill-opacity="1" fill-rule="nonzero"/><path fill="#100f0d" d="M 118.8125 348.097656 L 21.347656 348.097656 L 21.347656 336.636719 L 118.8125 336.636719 L 118.8125 348.097656 " fill-opacity="1" fill-rule="nonzero"/><path fill="#100f0d" d="M 353.847656 348.097656 L 256.382812 348.097656 L 256.382812 336.636719 L 353.847656 336.636719 L 353.847656 348.097656 " fill-opacity="1" fill-rule="nonzero"/></svg>