<?xml version="1.0" encoding="UTF-8"?>
<!DOCTYPE svg PUBLIC "-//W3C//DTD SVG 1.1//EN" "http://www.w3.org/Graphics/SVG/1.1/DTD/svg11.dtd">
<svg xmlns="http://www.w3.org/2000/svg" version="1.1" width="512px" height="512px" style="shape-rendering:geometricPrecision; text-rendering:geometricPrecision; image-rendering:optimizeQuality; fill-rule:evenodd; clip-rule:evenodd" xmlns:xlink="http://www.w3.org/1999/xlink">
<g><path style="opacity:0.997" fill="#0263d1" d="M 118.5,-0.5 C 179.5,-0.5 240.5,-0.5 301.5,-0.5C 301.5,49.5 301.5,99.5 301.5,149.5C 349.5,149.5 397.5,149.5 445.5,149.5C 446.167,149.5 446.833,149.5 447.5,149.5C 447.985,252.86 447.485,356.193 446,459.5C 438.441,487.561 420.608,504.894 392.5,511.5C 301.167,511.5 209.833,511.5 118.5,511.5C 90.3922,504.894 72.5588,487.561 65,459.5C 63.8451,391.526 63.3451,323.526 63.5,255.5C 63.3451,187.474 63.8451,119.474 65,51.5C 72.5588,23.4392 90.3922,6.1059 118.5,-0.5 Z"/></g>
<g><path style="opacity:1" fill="#4e92df" d="M 301.5,-0.5 C 302.167,-0.5 302.833,-0.5 303.5,-0.5C 330.802,28.8029 358.468,57.8029 386.5,86.5C 389.436,91.1053 393.102,95.1053 397.5,98.5C 401.167,101.5 404.5,104.833 407.5,108.5C 413.443,116.111 420.109,123.111 427.5,129.5C 429.167,130.5 430.5,131.833 431.5,133.5C 435.772,139.11 440.438,144.443 445.5,149.5C 397.5,149.5 349.5,149.5 301.5,149.5C 301.5,99.5 301.5,49.5 301.5,-0.5 Z"/></g>
<g><path style="opacity:0.475" fill="#cee0f6" d="M 386.5,86.5 C 390.898,89.8947 394.564,93.8947 397.5,98.5C 393.102,95.1053 389.436,91.1053 386.5,86.5 Z"/></g>
<g><path style="opacity:0.216" fill="#e6effa" d="M 407.5,108.5 C 414.891,114.889 421.557,121.889 427.5,129.5C 420.109,123.111 413.443,116.111 407.5,108.5 Z"/></g>
<g><path style="opacity:0.541" fill="#dae7f8" d="M 431.5,133.5 C 437.167,138.5 442.5,143.833 447.5,149.5C 446.833,149.5 446.167,149.5 445.5,149.5C 440.438,144.443 435.772,139.11 431.5,133.5 Z"/></g>
<g><path style="opacity:1" fill="#fbfcfe" d="M 240.5,279.5 C 258.881,276.793 274.381,282.126 287,295.5C 297.654,312.064 298.321,329.064 289,346.5C 276.968,362.072 261.135,368.239 241.5,365C 224.84,361.006 214.006,350.839 209,334.5C 204.017,307.117 214.517,288.784 240.5,279.5 Z"/></g>
<g><path style="opacity:1" fill="#fbfcfe" d="M 336.5,279.5 C 352.299,276.998 366.132,280.998 378,291.5C 380.435,294.934 382.435,298.6 384,302.5C 384.808,304.579 384.641,306.579 383.5,308.5C 377.014,310.731 370.347,312.064 363.5,312.5C 360.104,301.125 352.437,296.292 340.5,298C 329.877,302.139 324.544,309.972 324.5,321.5C 324.078,338.91 332.411,347.41 349.5,347C 356.762,345.24 361.095,340.74 362.5,333.5C 369.112,335.104 375.779,336.604 382.5,338C 383.428,338.388 384.095,339.055 384.5,340C 377.589,358.302 364.256,366.802 344.5,365.5C 317.039,363.535 303.039,348.702 302.5,321C 304.07,298.964 315.403,285.131 336.5,279.5 Z"/></g>
<g><path style="opacity:1" fill="#88b4e8" d="M 160.5,280.5 C 149.167,280.5 137.833,280.5 126.5,280.5C 126.5,308.5 126.5,336.5 126.5,364.5C 137.833,364.5 149.167,364.5 160.5,364.5C 149.012,365.495 137.345,365.828 125.5,365.5C 125.5,336.833 125.5,308.167 125.5,279.5C 137.345,279.172 149.012,279.505 160.5,280.5 Z"/></g>
<g><path style="opacity:1" fill="#fcfdfe" d="M 160.5,280.5 C 185.119,282.952 198.453,296.452 200.5,321C 199.811,347.187 186.478,361.687 160.5,364.5C 149.167,364.5 137.833,364.5 126.5,364.5C 126.5,336.5 126.5,308.5 126.5,280.5C 137.833,280.5 149.167,280.5 160.5,280.5 Z"/></g>
<g><path style="opacity:1" fill="#0663d1" d="M 147.5,298.5 C 172.262,297.087 182.096,308.42 177,332.5C 173.524,340.505 167.357,345.005 158.5,346C 154.848,346.499 151.182,346.665 147.5,346.5C 147.5,330.5 147.5,314.5 147.5,298.5 Z"/></g>
<g><path style="opacity:1" fill="#0964d1" d="M 245.5,297.5 C 258.751,296.036 267.918,301.369 273,313.5C 275.259,324.126 273.092,333.626 266.5,342C 250.023,351.841 237.857,348.008 230,330.5C 226.61,315.287 231.777,304.287 245.5,297.5 Z"/></g>
</svg>
