<svg xmlns="http://www.w3.org/2000/svg" xmlns:xlink="http://www.w3.org/1999/xlink" width="500" zoomAndPan="magnify" viewBox="0 0 375 374.999991" height="500" preserveAspectRatio="xMidYMid meet" version="1.0"><defs><clipPath id="51d4af570f"><path d="M 90.046875 56.25 L 285.046875 56.25 L 285.046875 318.75 L 90.046875 318.75 Z M 90.046875 56.25 " clip-rule="nonzero"/></clipPath><clipPath id="66279f40dc"><path d="M 215 56.25 L 285.046875 56.25 L 285.046875 126 L 215 126 Z M 215 56.25 " clip-rule="nonzero"/></clipPath></defs><g clip-path="url(#51d4af570f)"><path fill="#006fe8" d="M 285.046875 125.933594 L 285.046875 305.15625 C 285.046875 306.039062 284.960938 306.917969 284.785156 307.785156 C 284.613281 308.652344 284.359375 309.496094 284.019531 310.3125 C 283.679688 311.128906 283.265625 311.90625 282.773438 312.640625 C 282.28125 313.378906 281.722656 314.058594 281.097656 314.683594 C 280.472656 315.308594 279.789062 315.867188 279.054688 316.359375 C 278.320312 316.851562 277.542969 317.265625 276.722656 317.605469 C 275.90625 317.945312 275.0625 318.199219 274.195312 318.371094 C 273.328125 318.546875 272.449219 318.632812 271.566406 318.632812 L 103.527344 318.632812 C 102.644531 318.632812 101.765625 318.546875 100.898438 318.371094 C 100.03125 318.199219 99.1875 317.945312 98.371094 317.605469 C 97.550781 317.265625 96.773438 316.851562 96.039062 316.359375 C 95.304688 315.867188 94.621094 315.308594 93.996094 314.683594 C 93.371094 314.058594 92.8125 313.378906 92.320312 312.640625 C 91.828125 311.90625 91.414062 311.128906 91.074219 310.3125 C 90.734375 309.496094 90.480469 308.652344 90.308594 307.785156 C 90.132812 306.917969 90.046875 306.039062 90.046875 305.15625 L 90.046875 69.84375 C 90.046875 68.960938 90.132812 68.082031 90.308594 67.214844 C 90.480469 66.347656 90.734375 65.503906 91.074219 64.6875 C 91.414062 63.871094 91.828125 63.09375 92.320312 62.359375 C 92.8125 61.621094 93.371094 60.941406 93.996094 60.316406 C 94.621094 59.691406 95.304688 59.132812 96.039062 58.640625 C 96.773438 58.148438 97.550781 57.734375 98.371094 57.394531 C 99.1875 57.054688 100.03125 56.800781 100.898438 56.628906 C 101.765625 56.453125 102.644531 56.367188 103.527344 56.367188 L 215.449219 56.367188 Z M 285.046875 125.933594 " fill-opacity="1" fill-rule="nonzero"/></g><g clip-path="url(#66279f40dc)"><path fill="#5aa9ff" d="M 285.046875 125.933594 L 221.101562 125.933594 C 220.730469 125.933594 220.363281 125.898438 220 125.824219 C 219.632812 125.753906 219.28125 125.644531 218.9375 125.503906 C 218.59375 125.363281 218.269531 125.1875 217.960938 124.980469 C 217.652344 124.777344 217.367188 124.542969 217.105469 124.277344 C 216.839844 124.015625 216.605469 123.730469 216.402344 123.421875 C 216.195312 123.113281 216.019531 122.789062 215.878906 122.445312 C 215.734375 122.101562 215.628906 121.75 215.554688 121.386719 C 215.484375 121.019531 215.449219 120.652344 215.449219 120.28125 L 215.449219 56.367188 Z M 285.046875 125.933594 " fill-opacity="1" fill-rule="nonzero"/></g><path fill="#ffffff" d="M 140.042969 199.253906 L 124.847656 199.253906 L 124.847656 239.800781 L 140.042969 239.800781 C 152.988281 239.800781 161.3125 231.542969 161.3125 219.527344 C 161.308594 207.457031 152.988281 199.253906 140.042969 199.253906 Z M 139.410156 231.253906 L 134.730469 231.253906 L 134.730469 207.6875 L 139.410156 207.6875 C 146.863281 207.6875 151.257812 212.078125 151.257812 219.527344 C 151.257812 226.976562 146.863281 231.253906 139.410156 231.253906 Z M 139.410156 231.253906 " fill-opacity="1" fill-rule="nonzero"/><path fill="#ffffff" d="M 186.042969 198.675781 C 174.546875 198.675781 165.183594 207.21875 165.183594 219.410156 C 165.183594 231.601562 174.542969 240.207031 186.042969 240.207031 C 197.542969 240.207031 206.789062 231.597656 206.789062 219.410156 C 206.789062 207.222656 197.601562 198.675781 186.042969 198.675781 Z M 186.042969 231.195312 C 179.460938 231.195312 175.296875 226.515625 175.296875 219.410156 C 175.296875 212.1875 179.457031 207.621094 186.042969 207.621094 C 192.515625 207.621094 196.734375 212.183594 196.734375 219.410156 C 196.734375 226.515625 192.515625 231.195312 186.042969 231.195312 Z M 186.042969 231.195312 " fill-opacity="1" fill-rule="nonzero"/><path fill="#ffffff" d="M 230.886719 231.136719 C 224.820312 231.136719 220.660156 226.632812 220.660156 219.46875 C 220.660156 212.308594 224.820312 207.800781 230.886719 207.800781 C 234.644531 207.800781 237.707031 209.535156 239.382812 213 L 250.246094 213 C 247.9375 204.222656 240.652344 198.792969 231.003906 198.792969 C 219.042969 198.792969 210.605469 207.335938 210.605469 219.46875 C 210.605469 231.601562 219.042969 240.09375 231.003906 240.09375 C 240.652344 240.09375 247.9375 234.722656 250.246094 225.945312 L 239.382812 225.945312 C 237.707031 229.402344 234.644531 231.136719 230.886719 231.136719 Z M 230.886719 231.136719 " fill-opacity="1" fill-rule="nonzero"/></svg>