<svg xmlns="http://www.w3.org/2000/svg" xmlns:xlink="http://www.w3.org/1999/xlink" width="500" zoomAndPan="magnify" viewBox="0 0 375 374.999991" height="500" preserveAspectRatio="xMidYMid meet" version="1.0"><defs><clipPath id="2dff602fe6"><path d="M 90.046875 56.25 L 285.046875 56.25 L 285.046875 318.75 L 90.046875 318.75 Z M 90.046875 56.25 " clip-rule="nonzero"/></clipPath><clipPath id="ea8fe87f19"><path d="M 215 56.25 L 285.046875 56.25 L 285.046875 126 L 215 126 Z M 215 56.25 " clip-rule="nonzero"/></clipPath></defs><g clip-path="url(#2dff602fe6)"><path fill="#e80000" d="M 285.046875 125.933594 L 285.046875 305.15625 C 285.046875 306.039062 284.960938 306.917969 284.785156 307.785156 C 284.613281 308.652344 284.359375 309.496094 284.019531 310.3125 C 283.679688 311.128906 283.265625 311.90625 282.773438 312.640625 C 282.28125 313.378906 281.722656 314.058594 281.097656 314.683594 C 280.472656 315.308594 279.789062 315.867188 279.054688 316.359375 C 278.320312 316.851562 277.542969 317.265625 276.722656 317.605469 C 275.90625 317.945312 275.0625 318.199219 274.195312 318.371094 C 273.328125 318.546875 272.449219 318.632812 271.566406 318.632812 L 103.527344 318.632812 C 102.644531 318.632812 101.765625 318.546875 100.898438 318.371094 C 100.03125 318.199219 99.1875 317.945312 98.371094 317.605469 C 97.550781 317.265625 96.773438 316.851562 96.039062 316.359375 C 95.304688 315.867188 94.621094 315.308594 93.996094 314.683594 C 93.371094 314.058594 92.8125 313.378906 92.320312 312.640625 C 91.828125 311.90625 91.414062 311.128906 91.074219 310.3125 C 90.734375 309.496094 90.480469 308.652344 90.308594 307.785156 C 90.132812 306.917969 90.046875 306.039062 90.046875 305.15625 L 90.046875 69.84375 C 90.046875 68.960938 90.132812 68.082031 90.308594 67.214844 C 90.480469 66.347656 90.734375 65.503906 91.074219 64.6875 C 91.414062 63.871094 91.828125 63.09375 92.320312 62.359375 C 92.8125 61.621094 93.371094 60.941406 93.996094 60.316406 C 94.621094 59.691406 95.304688 59.132812 96.039062 58.640625 C 96.773438 58.148438 97.550781 57.734375 98.371094 57.394531 C 99.1875 57.054688 100.03125 56.800781 100.898438 56.628906 C 101.765625 56.453125 102.644531 56.367188 103.527344 56.367188 L 215.449219 56.367188 Z M 285.046875 125.933594 " fill-opacity="1" fill-rule="nonzero"/></g><g clip-path="url(#ea8fe87f19)"><path fill="#ff5a5a" d="M 285.046875 125.933594 L 221.101562 125.933594 C 220.730469 125.933594 220.363281 125.898438 220 125.824219 C 219.632812 125.753906 219.28125 125.644531 218.9375 125.503906 C 218.59375 125.363281 218.269531 125.1875 217.960938 124.980469 C 217.652344 124.777344 217.367188 124.542969 217.105469 124.277344 C 216.839844 124.015625 216.605469 123.730469 216.402344 123.421875 C 216.195312 123.113281 216.019531 122.789062 215.878906 122.445312 C 215.734375 122.101562 215.628906 121.75 215.554688 121.386719 C 215.484375 121.019531 215.449219 120.652344 215.449219 120.28125 L 215.449219 56.367188 Z M 285.046875 125.933594 " fill-opacity="1" fill-rule="nonzero"/></g><path fill="#ffffff" d="M 146.40625 195.390625 L 127.363281 195.390625 L 127.363281 243.628906 L 139.121094 243.628906 L 139.121094 226.3125 L 146.40625 226.3125 C 158.710938 226.3125 164.144531 218.890625 164.144531 210.917969 C 164.144531 202.054688 158.230469 195.390625 146.40625 195.390625 Z M 145.511719 216.964844 L 139.121094 216.964844 L 139.121094 204.871094 L 145.511719 204.871094 C 150.1875 204.871094 152.183594 207.207031 152.183594 210.917969 C 152.183594 214.628906 150.1875 216.964844 145.511719 216.964844 Z M 145.511719 216.964844 " fill-opacity="1" fill-rule="nonzero"/><path fill="#ffffff" d="M 188.34375 195.390625 L 170.261719 195.390625 L 170.261719 243.628906 L 188.34375 243.628906 C 203.742188 243.628906 213.644531 233.808594 213.644531 219.507812 C 213.644531 205.148438 203.742188 195.390625 188.34375 195.390625 Z M 187.585938 233.457031 L 182.019531 233.457031 L 182.019531 205.421875 L 187.585938 205.421875 C 196.457031 205.421875 201.679688 210.644531 201.679688 219.507812 C 201.679688 228.375 196.457031 233.457031 187.585938 233.457031 Z M 187.585938 233.457031 " fill-opacity="1" fill-rule="nonzero"/><path fill="#ffffff" d="M 251.660156 204.804688 L 251.660156 195.390625 L 220.242188 195.390625 L 220.242188 243.628906 L 232 243.628906 L 232 224.113281 L 246.710938 224.113281 L 246.710938 214.972656 L 232 214.972656 L 232 204.804688 Z M 251.660156 204.804688 " fill-opacity="1" fill-rule="nonzero"/></svg>