<svg xmlns="http://www.w3.org/2000/svg" xmlns:xlink="http://www.w3.org/1999/xlink" width="500" zoomAndPan="magnify" viewBox="0 0 375 374.999991" height="500" preserveAspectRatio="xMidYMid meet" version="1.0"><defs><clipPath id="66273a8a3a"><path d="M 30.589844 15.070312 L 344.089844 15.070312 L 344.089844 330 L 30.589844 330 Z M 30.589844 15.070312 " clip-rule="nonzero"/></clipPath></defs><g clip-path="url(#66273a8a3a)"><path fill="#4253f0" d="M 344.457031 172.160156 C 344.457031 258.820312 274.210938 329.066406 187.546875 329.066406 C 100.886719 329.066406 30.640625 258.820312 30.640625 172.160156 C 30.636719 85.496094 100.886719 15.25 187.546875 15.25 C 274.210938 15.246094 344.457031 85.496094 344.457031 172.160156 " fill-opacity="1" fill-rule="nonzero"/></g><path fill="#000000" d="M 257.855469 288.464844 L 120.847656 288.464844 L 120.847656 157.910156 L 257.855469 157.910156 L 257.855469 288.464844 " fill-opacity="1" fill-rule="nonzero"/><path fill="#ffffff" d="M 279.09375 329.496094 C 271.332031 335.292969 263 340.367188 254.199219 344.613281 C 252.859375 345.261719 251.519531 345.882812 250.160156 346.492188 C 231.046875 355.0625 209.859375 359.828125 187.546875 359.828125 C 165.238281 359.828125 144.058594 355.0625 124.945312 346.492188 C 123.574219 345.882812 122.226562 345.261719 120.898438 344.613281 C 112.097656 340.355469 103.765625 335.292969 96.011719 329.496094 C 97.371094 299.164062 113.484375 272.667969 137.351562 257.023438 C 151.769531 247.5625 169.015625 242.066406 187.546875 242.066406 C 190.375 242.066406 193.171875 242.195312 195.921875 242.445312 C 211.277344 243.835938 225.523438 249 237.742188 257.023438 C 248.734375 264.226562 258.074219 273.726562 265.089844 284.835938 C 273.320312 297.875 278.347656 313.132812 279.09375 329.496094 " fill-opacity="1" fill-rule="nonzero"/><path fill="#fbd5c0" d="M 237.742188 257.023438 C 236.34375 267.601562 231.679688 277.164062 224.773438 284.636719 C 215.523438 294.660156 202.273438 300.941406 187.546875 300.941406 C 163.960938 300.941406 144.136719 284.808594 138.511719 262.96875 C 138.011719 261.027344 137.625 259.039062 137.351562 257.023438 C 151.769531 247.5625 169.015625 242.066406 187.546875 242.066406 C 190.375 242.066406 193.171875 242.1875 195.929688 242.445312 C 196.410156 242.484375 196.890625 242.535156 197.359375 242.585938 C 197.660156 242.617188 197.957031 242.644531 198.25 242.683594 C 198.578125 242.714844 198.90625 242.765625 199.226562 242.804688 C 199.425781 242.824219 199.636719 242.855469 199.835938 242.886719 C 200.125 242.914062 200.425781 242.964844 200.726562 243.003906 C 200.957031 243.035156 201.1875 243.074219 201.425781 243.105469 C 201.625 243.136719 201.824219 243.164062 202.023438 243.203125 C 202.363281 243.253906 202.695312 243.316406 203.035156 243.363281 C 204.492188 243.613281 205.941406 243.894531 207.371094 244.214844 L 208.328125 244.421875 C 208.507812 244.472656 208.699219 244.511719 208.878906 244.5625 C 209.21875 244.644531 209.566406 244.722656 209.898438 244.8125 C 209.957031 244.824219 210.007812 244.832031 210.046875 244.84375 C 210.476562 244.953125 210.90625 245.0625 211.328125 245.183594 C 211.785156 245.292969 212.234375 245.421875 212.675781 245.550781 C 213.183594 245.691406 213.683594 245.84375 214.195312 245.992188 C 214.582031 246.113281 214.972656 246.230469 215.363281 246.363281 C 215.613281 246.441406 215.871094 246.523438 216.113281 246.601562 C 216.523438 246.730469 216.929688 246.871094 217.332031 247.011719 C 217.832031 247.179688 218.320312 247.351562 218.808594 247.53125 C 218.851562 247.550781 218.878906 247.5625 218.910156 247.570312 C 219.417969 247.75 219.917969 247.941406 220.417969 248.128906 C 220.789062 248.28125 221.167969 248.421875 221.546875 248.578125 C 222.535156 248.96875 223.503906 249.378906 224.464844 249.800781 L 225.722656 250.367188 C 226.101562 250.539062 226.484375 250.71875 226.863281 250.898438 C 227.210938 251.066406 227.550781 251.226562 227.890625 251.398438 C 228.210938 251.546875 228.519531 251.707031 228.832031 251.867188 C 229.03125 251.96875 229.242188 252.066406 229.441406 252.175781 C 230.269531 252.597656 231.078125 253.035156 231.878906 253.476562 C 232.167969 253.636719 232.46875 253.804688 232.746094 253.964844 C 232.9375 254.074219 233.117188 254.175781 233.296875 254.273438 L 233.976562 254.675781 L 234.664062 255.09375 L 235.113281 255.363281 C 235.542969 255.613281 235.964844 255.875 236.382812 256.144531 C 236.84375 256.433594 237.292969 256.722656 237.742188 257.023438 " fill-opacity="1" fill-rule="nonzero"/><path fill="#fbd5c0" d="M 205.191406 221.535156 L 205.191406 256.242188 C 205.191406 265.023438 198.007812 272.21875 189.238281 272.21875 L 185.859375 272.21875 C 177.085938 272.21875 169.914062 265.023438 169.914062 256.242188 L 169.914062 221.535156 C 169.914062 212.753906 177.085938 205.570312 185.859375 205.570312 L 189.238281 205.570312 C 198.007812 205.570312 205.191406 212.753906 205.191406 221.535156 " fill-opacity="1" fill-rule="nonzero"/><path fill="#f8a29e" d="M 205.191406 221.535156 L 205.191406 239.898438 C 199.945312 242.816406 194.382812 244.511719 188.738281 244.511719 C 182.074219 244.511719 175.71875 242.65625 169.914062 239.429688 L 169.914062 221.535156 C 169.914062 212.753906 177.085938 205.570312 185.859375 205.570312 L 189.238281 205.570312 C 198.007812 205.570312 205.191406 212.753906 205.191406 221.535156 " fill-opacity="1" fill-rule="nonzero"/><path fill="#fbd5c0" d="M 241.949219 200.015625 C 241.949219 200.015625 252.398438 196.457031 259.074219 184.808594 C 266.328125 172.160156 261.769531 164.277344 260.332031 162.566406 C 256.40625 157.902344 250.339844 160.898438 249.34375 162.566406 C 248.34375 164.234375 233.875 190.511719 241.949219 200.015625 " fill-opacity="1" fill-rule="nonzero"/><path fill="#f8a29e" d="M 252.191406 166.714844 C 252.191406 166.714844 258.824219 167.5625 256.496094 176.886719 C 254.15625 186.214844 248.035156 189.902344 239.699219 194.667969 C 231.378906 199.433594 243.867188 168.613281 252.191406 166.714844 " fill-opacity="1" fill-rule="nonzero"/><path fill="#fbd5c0" d="M 135.863281 200.015625 C 135.863281 200.015625 125.414062 196.457031 118.742188 184.808594 C 111.476562 172.160156 116.03125 164.277344 117.472656 162.566406 C 121.398438 157.902344 127.460938 160.898438 128.460938 162.566406 C 129.460938 164.234375 143.9375 190.511719 135.863281 200.015625 " fill-opacity="1" fill-rule="nonzero"/><path fill="#f8a29e" d="M 125.613281 166.714844 C 125.613281 166.714844 118.988281 167.5625 121.316406 176.886719 C 123.644531 186.214844 129.78125 189.902344 138.101562 194.667969 C 146.433594 199.433594 133.945312 168.613281 125.613281 166.714844 " fill-opacity="1" fill-rule="nonzero"/><path fill="#fbd5c0" d="M 252.191406 160.558594 C 252.191406 122.265625 223.925781 91.210938 189.046875 91.210938 C 154.179688 91.210938 125.894531 122.265625 125.894531 160.558594 C 125.894531 198.855469 154.179688 238.890625 189.046875 238.890625 C 221.816406 238.890625 252.191406 198.535156 252.191406 160.558594 " fill-opacity="1" fill-rule="nonzero"/><path fill="#000000" d="M 256.984375 137.089844 C 254.296875 112.144531 236.964844 72.988281 194.773438 77.984375 C 176.789062 73.988281 120.828125 81.839844 120.828125 160.070312 C 120.828125 160.070312 132.007812 169.070312 157.355469 173.828125 C 158.515625 155.894531 161.800781 142.425781 161.800781 142.425781 C 159.222656 156.792969 164.820312 166.382812 165.058594 175.078125 C 186.390625 177.972656 216.050781 177.703125 255.367188 168.472656 C 255.367188 168.472656 259.632812 161.617188 256.984375 137.089844 " fill-opacity="1" fill-rule="nonzero"/><path fill="#000000" d="M 140.851562 249.5 L 120.847656 249.5 L 120.847656 157.910156 L 140.851562 157.910156 L 140.851562 249.5 " fill-opacity="1" fill-rule="nonzero"/><path fill="#000000" d="M 257.855469 249.5 L 237.84375 249.5 L 237.84375 157.910156 L 257.855469 157.910156 L 257.855469 249.5 " fill-opacity="1" fill-rule="nonzero"/></svg>