<?xml version="1.0" encoding="UTF-8"?>
<!DOCTYPE svg PUBLIC "-//W3C//DTD SVG 1.1//EN" "http://www.w3.org/Graphics/SVG/1.1/DTD/svg11.dtd">
<svg xmlns="http://www.w3.org/2000/svg" version="1.1" width="512px" height="512px" style="shape-rendering:geometricPrecision; text-rendering:geometricPrecision; image-rendering:optimizeQuality; fill-rule:evenodd; clip-rule:evenodd" xmlns:xlink="http://www.w3.org/1999/xlink">
<g><path style="opacity:0.997" fill="#00733b" d="M 118.5,-0.5 C 179.5,-0.5 240.5,-0.5 301.5,-0.5C 301.168,49.6694 301.501,99.6694 302.5,149.5C 350.167,149.5 397.833,149.5 445.5,149.5C 446.167,149.5 446.833,149.5 447.5,149.5C 447.667,250.501 447.5,351.501 447,452.5C 441.757,484.239 423.59,503.905 392.5,511.5C 301.167,511.5 209.833,511.5 118.5,511.5C 87.4096,503.905 69.243,484.239 64,452.5C 63.8333,386.833 63.6667,321.167 63.5,255.5C 63.3451,187.474 63.8451,119.474 65,51.5C 72.5588,23.4392 90.3922,6.1059 118.5,-0.5 Z"/></g>
<g><path style="opacity:1" fill="#389166" d="M 301.5,-0.5 C 302.167,-0.5 302.833,-0.5 303.5,-0.5C 306.239,2.23273 308.573,5.23273 310.5,8.5C 307.87,6.3719 305.37,4.03856 303,1.5C 302.5,50.8322 302.333,100.166 302.5,149.5C 301.501,99.6694 301.168,49.6694 301.5,-0.5 Z"/></g>
<g><path style="opacity:1" fill="#4d9d76" d="M 310.5,8.5 C 335.502,33.5023 360.169,58.8356 384.5,84.5C 387.77,89.4397 391.77,93.7731 396.5,97.5C 400.167,100.5 403.5,103.833 406.5,107.5C 412.443,115.111 419.109,122.111 426.5,128.5C 427.5,128.833 428.167,129.5 428.5,130.5C 433.774,137.111 439.44,143.445 445.5,149.5C 397.833,149.5 350.167,149.5 302.5,149.5C 302.333,100.166 302.5,50.8322 303,1.5C 305.37,4.03856 307.87,6.3719 310.5,8.5 Z"/></g>
<g><path style="opacity:0.51" fill="#cee4d9" d="M 384.5,84.5 C 389.23,88.2269 393.23,92.5603 396.5,97.5C 391.77,93.7731 387.77,89.4397 384.5,84.5 Z"/></g>
<g><path style="opacity:0.095" fill="#e8f2ed" d="M 406.5,107.5 C 413.891,113.889 420.557,120.889 426.5,128.5C 419.109,122.111 412.443,115.111 406.5,107.5 Z"/></g>
<g><path style="opacity:0.349" fill="#e3efe9" d="M 428.5,130.5 C 435.167,136.5 441.5,142.833 447.5,149.5C 446.833,149.5 446.167,149.5 445.5,149.5C 439.44,143.445 433.774,137.111 428.5,130.5 Z"/></g>
<g><path style="opacity:1" fill="#fcfdfc" d="M 325.5,278.5 C 339.48,276.792 352.147,279.959 363.5,288C 367.189,291.714 369.856,296.047 371.5,301C 365.396,304.801 358.896,307.968 352,310.5C 350.098,308.373 348.431,306.04 347,303.5C 342.078,298.798 336.245,297.298 329.5,299C 324.167,302.667 324.167,306.333 329.5,310C 340.636,312.268 351.303,315.934 361.5,321C 370.466,328.898 373.632,338.731 371,350.5C 369.262,357.48 365.429,362.98 359.5,367C 338.312,378.369 319.812,375.203 304,357.5C 301.082,352.913 299.916,348.08 300.5,343C 305.945,341.296 311.445,339.796 317,338.5C 318.107,338.585 319.107,338.919 320,339.5C 323.444,349.97 330.611,354.47 341.5,353C 346.924,350.983 348.758,347.15 347,341.5C 346.167,340.667 345.333,339.833 344.5,339C 334.281,335.927 324.281,332.26 314.5,328C 303.988,320.478 300.155,310.311 303,297.5C 307.657,287.667 315.157,281.333 325.5,278.5 Z"/></g>
<g><path style="opacity:1" fill="#fbfdfc" d="M 143.5,279.5 C 151.86,279.169 160.193,279.502 168.5,280.5C 172.349,287.544 176.682,294.211 181.5,300.5C 185.944,293.787 190.278,286.954 194.5,280C 202.833,279.333 211.167,279.333 219.5,280C 210.773,293.958 202.439,308.124 194.5,322.5C 203.52,339.373 213.187,355.873 223.5,372C 215.167,372.667 206.833,372.667 198.5,372C 192.708,362.917 187.041,353.75 181.5,344.5C 175.457,353.415 169.791,362.582 164.5,372C 156.167,372.667 147.833,372.667 139.5,372C 149.173,355.65 158.84,339.317 168.5,323C 160.024,308.543 151.69,294.043 143.5,279.5 Z"/></g>
<g><path style="opacity:1" fill="#fefffe" d="M 232.5,279.5 C 240.167,279.5 247.833,279.5 255.5,279.5C 255.5,303.833 255.5,328.167 255.5,352.5C 268.833,352.5 282.167,352.5 295.5,352.5C 295.5,358.833 295.5,365.167 295.5,371.5C 274.5,371.5 253.5,371.5 232.5,371.5C 232.5,340.833 232.5,310.167 232.5,279.5 Z"/></g>
<g><path style="opacity:1" fill="#509f78" d="M 255.5,279.5 C 256.498,303.328 256.831,327.328 256.5,351.5C 270.01,351.171 283.344,351.504 296.5,352.5C 296.167,352.5 295.833,352.5 295.5,352.5C 282.167,352.5 268.833,352.5 255.5,352.5C 255.5,328.167 255.5,303.833 255.5,279.5 Z"/></g>
<g><path style="opacity:1" fill="#a7cebb" d="M 232.5,279.5 C 232.5,310.167 232.5,340.833 232.5,371.5C 253.5,371.5 274.5,371.5 295.5,371.5C 295.5,365.167 295.5,358.833 295.5,352.5C 295.833,352.5 296.167,352.5 296.5,352.5C 296.5,359.167 296.5,365.833 296.5,372.5C 274.833,372.5 253.167,372.5 231.5,372.5C 231.169,341.329 231.502,310.329 232.5,279.5 Z"/></g>
</svg>
